<?xml version="1.0" encoding="UTF-8"?>
<svg xmlns="http://www.w3.org/2000/svg" width="237" height="84" viewBox="0 0 237 84" fill="none">
  <g clip-path="url(#clip0_1676_365)">
    <path d="M24.5523 63.2263L0 82.9633V34.3438H24.5523V63.2263Z" fill="black"></path>
    <path d="M34.375 63.2263L58.9273 82.9633V34.3438H34.375V63.2263Z" fill="black"></path>
    <path d="M29.4612 29.8827C37.7198 29.8827 44.4146 23.1933 44.4146 14.9414C44.4146 6.68948 37.7198 0 29.4612 0C21.2027 0 14.5078 6.68948 14.5078 14.9414C14.5078 23.1933 21.2027 29.8827 29.4612 29.8827Z" fill="black"></path>
    <path d="M76.0621 38.7113H68.9766V34.3438H88.3448V38.7113H81.2592V57.9634H76.0621V38.7113Z" fill="black"></path>
    <path d="M86.7578 40.8614H91.225V44.0366H91.2906C91.5092 43.5081 91.8108 43.019 92.1823 42.5647C92.5582 42.1149 92.9866 41.7262 93.4718 41.4073C93.957 41.0885 94.4815 40.8396 95.0453 40.6649C95.6092 40.4901 96.1775 40.3984 96.7501 40.3984C97.1041 40.3984 97.4451 40.4552 97.7773 40.5644V44.9319C97.5587 44.8883 97.2921 44.849 96.9817 44.8184C96.6714 44.7835 96.3742 44.7703 96.09 44.7703C95.2289 44.7703 94.499 44.9145 93.9045 45.2027C93.31 45.491 92.8292 45.8797 92.4664 46.3776C92.1036 46.8755 91.8414 47.4564 91.6884 48.129C91.5354 48.8016 91.4567 49.5135 91.4567 50.2647V57.9734H86.7578V40.8614Z" fill="black"></path>
    <path d="M99.4361 46.1238C99.5016 45.0232 99.777 44.106 100.262 43.3766C100.747 42.6473 101.364 42.0664 102.116 41.6253C102.867 41.1841 103.707 40.8697 104.633 40.6819C105.56 40.4941 106.508 40.4023 107.479 40.4023C108.34 40.4023 109.21 40.4635 110.093 40.5858C110.976 40.7081 111.78 40.9439 112.51 41.2977C113.24 41.6515 113.834 42.145 114.298 42.787C114.761 43.4247 114.993 44.2545 114.993 45.2678V54.1645C114.993 54.9375 115.036 55.6756 115.124 56.3832C115.211 57.0907 115.364 57.6192 115.587 57.9686H110.818C110.731 57.7022 110.657 57.4358 110.604 57.1563C110.547 56.8811 110.508 56.6016 110.486 56.3133C109.734 57.0864 108.851 57.6323 107.837 57.9512C106.823 58.27 105.783 58.4316 104.725 58.4316C103.908 58.4316 103.147 58.3268 102.439 58.1171C101.731 57.9075 101.115 57.593 100.586 57.1737C100.057 56.7544 99.6415 56.226 99.3443 55.5839C99.0471 54.9463 98.8984 54.182 98.8984 53.2997C98.8984 52.3301 99.0645 51.5309 99.3967 50.9019C99.7289 50.273 100.17 49.7707 100.721 49.3951C101.272 49.0195 101.897 48.74 102.592 48.5522C103.287 48.3644 103.999 48.2159 104.725 48.1067C105.455 47.9975 106.15 47.9058 106.81 47.8403C107.474 47.7748 108.065 47.6743 108.58 47.5433C109.101 47.4123 109.511 47.2201 109.822 46.9624C110.132 46.7091 110.285 46.3378 110.285 45.853C110.285 45.3464 110.202 44.9446 110.036 44.6476C109.87 44.3506 109.651 44.1191 109.376 43.9532C109.101 43.7872 108.781 43.678 108.414 43.6212C108.051 43.5644 107.658 43.5383 107.238 43.5383C106.334 43.5383 105.612 43.7348 105.07 44.1322C104.528 44.5297 104.214 45.1892 104.126 46.1151H99.4361V46.1238ZM110.294 49.596C110.097 49.7707 109.848 49.9105 109.551 50.0109C109.253 50.1114 108.934 50.1944 108.589 50.2599C108.248 50.3254 107.881 50.3822 107.496 50.4259C107.112 50.4695 106.74 50.5263 106.386 50.5918C106.01 50.6573 105.656 50.7447 105.328 50.8582C104.996 50.9674 104.703 51.1159 104.45 51.3037C104.196 51.4916 103.991 51.7318 103.838 52.0331C103.685 52.3301 103.606 52.6882 103.606 53.1075C103.606 53.5487 103.685 53.9068 103.838 54.182C103.991 54.4571 104.201 54.6799 104.467 54.8414C104.734 55.0074 105.04 55.121 105.394 55.1909C105.748 55.2564 106.111 55.2913 106.487 55.2913C107.413 55.2913 108.13 55.1384 108.637 54.8283C109.144 54.5183 109.52 54.1514 109.761 53.719C110.005 53.291 110.154 52.8542 110.206 52.4131C110.263 51.972 110.289 51.6182 110.289 51.3562V49.596H110.294Z" fill="black"></path>
    <path d="M130.857 55.7792H130.791C130.24 56.7051 129.51 57.3777 128.606 57.797C127.701 58.2163 126.696 58.4259 125.594 58.4259C124.291 58.4259 123.159 58.1726 122.202 57.666C121.24 57.1593 120.449 56.4824 119.82 55.6307C119.19 54.7834 118.714 53.8051 118.395 52.7045C118.076 51.6038 117.914 50.4552 117.914 49.2628C117.914 48.1185 118.076 47.0092 118.395 45.9391C118.714 44.8691 119.19 43.9257 119.82 43.109C120.449 42.2922 121.236 41.6371 122.189 41.1392C123.137 40.6413 124.243 40.3967 125.498 40.3967C126.512 40.3967 127.478 40.6107 128.396 41.0431C129.309 41.4755 130.035 42.1088 130.564 42.9474H130.629V34.3477H135.328V57.9673H130.857V55.7792ZM130.59 47.3455C130.459 46.686 130.232 46.1051 129.913 45.6072C129.594 45.1093 129.174 44.7075 128.654 44.4017C128.134 44.0916 127.5 43.9388 126.752 43.9388C125.979 43.9388 125.327 44.0916 124.798 44.4017C124.27 44.7118 123.846 45.118 123.522 45.6247C123.203 46.1313 122.971 46.7122 122.827 47.3629C122.683 48.0137 122.613 48.6907 122.613 49.3982C122.613 50.0577 122.692 50.7216 122.845 51.3811C122.998 52.0406 123.247 52.6346 123.588 53.1499C123.929 53.6697 124.361 54.089 124.877 54.4078C125.397 54.7266 126.018 54.8882 126.748 54.8882C127.522 54.8882 128.164 54.7354 128.684 54.4253C129.205 54.1152 129.615 53.7046 129.926 53.1849C130.236 52.6651 130.455 52.0755 130.59 51.416C130.721 50.7565 130.787 50.0708 130.787 49.3633C130.791 48.6776 130.721 48.005 130.59 47.3455Z" fill="black"></path>
    <path d="M142.735 50.556C142.8 52.054 143.185 53.1547 143.893 53.8491C144.601 54.5435 145.615 54.8929 146.939 54.8929C147.888 54.8929 148.705 54.6571 149.387 54.181C150.069 53.7093 150.489 53.2071 150.646 52.6742H154.786C154.121 54.7051 153.107 56.1683 151.739 57.0723C150.371 57.9764 148.714 58.4306 146.773 58.4306C145.427 58.4306 144.212 58.2123 143.132 57.7712C142.053 57.33 141.135 56.7142 140.383 55.9193C139.631 55.1244 139.054 54.1767 138.643 53.076C138.232 51.9754 138.031 50.7612 138.031 49.4379C138.031 48.1582 138.241 46.9702 138.661 45.8652C139.08 44.7646 139.675 43.8081 140.448 43.0045C141.222 42.2009 142.14 41.5676 143.211 41.1046C144.282 40.6416 145.466 40.4102 146.769 40.4102C148.225 40.4102 149.497 40.6897 150.576 41.2531C151.656 41.8165 152.548 42.5721 153.243 43.5198C153.938 44.4676 154.44 45.5507 154.751 46.7606C155.061 47.9747 155.17 49.2413 155.083 50.5647H142.735V50.556ZM150.38 47.5773C150.157 46.385 149.768 45.4809 149.204 44.865C148.64 44.2492 147.787 43.9391 146.638 43.9391C145.886 43.9391 145.265 44.0658 144.767 44.3191C144.269 44.5724 143.875 44.8869 143.574 45.2625C143.272 45.6381 143.067 46.0356 142.944 46.4548C142.822 46.8741 142.752 47.2497 142.73 47.5817H150.38V47.5773Z" fill="black"></path>
    <path d="M158 40.8619H162.437V43.1767H162.502C163.119 42.2944 163.866 41.6131 164.736 41.1239C165.606 40.6391 166.607 40.3945 167.73 40.3945C168.81 40.3945 169.798 40.6085 170.694 41.0409C171.585 41.4733 172.267 42.2027 172.731 43.2422C173.238 42.4909 173.928 41.8315 174.798 41.2593C175.668 40.6872 176.699 40.3989 177.893 40.3989C178.798 40.3989 179.637 40.5081 180.41 40.7308C181.184 40.9492 181.844 41.303 182.395 41.7878C182.946 42.2726 183.378 42.9059 183.684 43.692C183.995 44.4738 184.148 45.4172 184.148 46.5222V57.9695H179.449V48.2779C179.449 47.7058 179.427 47.1642 179.383 46.6576C179.34 46.151 179.217 45.7098 179.02 45.3342C178.824 44.9586 178.531 44.6616 178.142 44.4432C177.757 44.2249 177.233 44.1113 176.568 44.1113C175.904 44.1113 175.371 44.238 174.964 44.4913C174.553 44.7446 174.234 45.0765 174.002 45.4827C173.771 45.8889 173.618 46.3562 173.539 46.8716C173.46 47.3913 173.421 47.9154 173.421 48.4439V57.9695H168.722V48.3784C168.722 47.8936 168.709 47.3957 168.687 46.8891C168.665 46.3824 168.569 45.9195 168.408 45.5002C168.241 45.0809 167.966 44.7446 167.581 44.4913C167.197 44.238 166.628 44.1113 165.877 44.1113C165.632 44.1113 165.335 44.1594 164.985 44.2598C164.631 44.3603 164.286 44.5481 163.94 44.8232C163.599 45.0984 163.306 45.4958 163.062 46.0156C162.817 46.5353 162.699 47.2123 162.699 48.0508V57.9739H158V40.8619Z" fill="black"></path>
    <path d="M187.663 46.1238C187.728 45.0232 188.004 44.106 188.489 43.3766C188.974 42.6473 189.59 42.0664 190.342 41.6253C191.094 41.1841 191.929 40.8697 192.86 40.6819C193.787 40.4941 194.735 40.4023 195.705 40.4023C196.567 40.4023 197.436 40.4635 198.319 40.5858C199.202 40.7081 200.007 40.9439 200.736 41.2977C201.466 41.6515 202.061 42.145 202.524 42.787C202.988 43.4247 203.219 44.2545 203.219 45.2678V54.1645C203.219 54.9375 203.263 55.6756 203.35 56.3832C203.438 57.0907 203.595 57.6192 203.814 57.9686H199.045C198.957 57.7022 198.883 57.4358 198.831 57.1563C198.774 56.8811 198.735 56.6016 198.713 56.3133C197.961 57.0864 197.078 57.6323 196.064 57.9512C195.05 58.27 194.009 58.4316 192.952 58.4316C192.134 58.4316 191.374 58.3268 190.666 58.1171C189.957 57.9075 189.341 57.593 188.812 57.1737C188.283 56.7544 187.868 56.226 187.571 55.5839C187.274 54.9463 187.125 54.182 187.125 53.2997C187.125 52.3301 187.291 51.5309 187.623 50.9019C187.955 50.273 188.397 49.7707 188.948 49.3951C189.498 49.0195 190.124 48.74 190.819 48.5522C191.514 48.3644 192.226 48.2159 192.956 48.1067C193.686 47.9975 194.381 47.9058 195.041 47.8403C195.701 47.7748 196.295 47.6743 196.811 47.5433C197.331 47.4123 197.742 47.2201 198.053 46.9624C198.363 46.7091 198.516 46.3378 198.516 45.853C198.516 45.3464 198.433 44.9446 198.267 44.6476C198.101 44.3506 197.882 44.1191 197.607 43.9532C197.331 43.7872 197.012 43.678 196.645 43.6212C196.278 43.5644 195.889 43.5383 195.469 43.5383C194.565 43.5383 193.843 43.7348 193.301 44.1322C192.759 44.5297 192.445 45.1892 192.357 46.1151H187.663V46.1238ZM198.52 49.596C198.324 49.7707 198.075 49.9105 197.777 50.0109C197.48 50.1114 197.161 50.1944 196.816 50.2599C196.475 50.3254 196.108 50.3822 195.723 50.4259C195.338 50.4695 194.967 50.5263 194.613 50.5918C194.237 50.6573 193.883 50.7447 193.555 50.8582C193.223 50.9674 192.93 51.1159 192.676 51.3037C192.423 51.4916 192.217 51.7318 192.064 52.0331C191.911 52.3301 191.833 52.6882 191.833 53.1075C191.833 53.5487 191.911 53.9068 192.064 54.182C192.217 54.4571 192.427 54.6799 192.694 54.8414C192.96 55.0074 193.266 55.121 193.62 55.1909C193.974 55.2564 194.337 55.2913 194.713 55.2913C195.64 55.2913 196.357 55.1384 196.864 54.8283C197.371 54.5183 197.747 54.1514 197.991 53.719C198.236 53.291 198.385 52.8542 198.437 52.4131C198.494 51.972 198.52 51.6182 198.52 51.3562V49.596Z" fill="black"></path>
    <path d="M206.859 40.8614H211.327V44.0366H211.397C211.615 43.5081 211.917 43.019 212.288 42.5647C212.664 42.1149 213.093 41.7262 213.578 41.4073C214.063 41.0885 214.587 40.8396 215.151 40.6649C215.715 40.4901 216.283 40.3984 216.856 40.3984C217.21 40.3984 217.551 40.4552 217.883 40.5644V44.9319C217.665 44.8883 217.398 44.849 217.088 44.8184C216.777 44.7835 216.48 44.7703 216.196 44.7703C215.335 44.7703 214.605 44.9145 214.01 45.2027C213.416 45.491 212.935 45.8797 212.572 46.3776C212.21 46.8755 211.947 47.4564 211.794 48.129C211.641 48.8016 211.563 49.5135 211.563 50.2647V57.9734H206.864V40.8614H206.859Z" fill="black"></path>
    <path d="M220.5 34.3438H225.199V47.014L231.126 40.8601H236.686L230.23 47.145L237.412 57.9634H231.725L227.026 50.3202L225.203 52.0716V57.9591H220.504V34.3438H220.5Z" fill="black"></path>
    <path d="M76.0625 63.168H78.7332V83.2237H76.0625V63.168Z" fill="black"></path>
    <path d="M82.8359 68.7H85.0827V71.0017H85.1395C85.6465 70.102 86.2978 69.4382 87.0934 69.0058C87.8889 68.5734 88.8112 68.3594 89.8602 68.3594C90.8175 68.3594 91.613 68.4904 92.2512 68.7525C92.8894 69.0145 93.4052 69.3814 93.7986 69.8487C94.192 70.316 94.4673 70.8751 94.6291 71.5215C94.7864 72.1679 94.8695 72.8842 94.8695 73.6703V83.2178H92.4785V73.3864C92.4785 72.4867 92.2162 71.7748 91.6917 71.2507C91.1672 70.7266 90.446 70.4645 89.528 70.4645C88.7981 70.4645 88.1643 70.5781 87.631 70.8008C87.0977 71.0236 86.6519 71.3424 86.2978 71.7573C85.9438 72.1679 85.6728 72.6527 85.4979 73.203C85.3187 73.7533 85.2313 74.3604 85.2313 75.0155V83.2178H82.8403V68.7H82.8359Z" fill="black"></path>
    <path d="M111.453 83.2237H109.062V81.2583H109.005C108.612 82.062 107.995 82.6472 107.152 83.0141C106.308 83.381 105.382 83.56 104.367 83.56C103.244 83.56 102.265 83.3548 101.43 82.9399C100.595 82.5293 99.9002 81.9703 99.3494 81.2671C98.7943 80.5639 98.3791 79.7559 98.0993 78.8387C97.8196 77.9215 97.6797 76.9476 97.6797 75.9168C97.6797 74.8861 97.8152 73.9165 98.0862 73.008C98.3572 72.0996 98.7681 71.3003 99.3232 70.6059C99.874 69.9115 100.569 69.3655 101.404 68.9637C102.239 68.5619 103.209 68.361 104.315 68.361C104.691 68.361 105.093 68.4003 105.526 68.4745C105.958 68.5488 106.387 68.6755 106.82 68.8545C107.252 69.0336 107.659 69.2651 108.043 69.5577C108.428 69.8503 108.752 70.2085 109.014 70.6408H109.071V63.168H111.462V83.2237H111.453ZM100.477 78.07C100.656 78.7164 100.927 79.293 101.29 79.7996C101.653 80.3062 102.125 80.708 102.698 81.0094C103.27 81.3108 103.939 81.4593 104.708 81.4593C105.513 81.4593 106.199 81.302 106.758 80.9832C107.322 80.6644 107.781 80.2494 108.135 79.7341C108.489 79.2187 108.747 78.6335 108.909 77.9783C109.066 77.3232 109.149 76.6593 109.149 75.9823C109.149 75.2704 109.066 74.5847 108.896 73.9165C108.725 73.2526 108.459 72.6674 108.096 72.1607C107.729 71.6541 107.257 71.2479 106.675 70.9378C106.094 70.6277 105.39 70.4749 104.568 70.4749C103.742 70.4749 103.056 70.6321 102.501 70.9509C101.946 71.2698 101.504 71.689 101.168 72.2132C100.831 72.7373 100.586 73.3356 100.438 74.0126C100.289 74.6852 100.215 75.3796 100.215 76.0915C100.211 76.7641 100.298 77.4236 100.477 78.07Z" fill="black"></path>
    <path d="M117.664 66.0899H115.273V63.168H117.664V66.0899ZM115.278 68.7017H117.669V83.2237H115.278V68.7017Z" fill="black"></path>
    <path d="M134.253 83.2247C134.048 83.3164 133.803 83.3994 133.523 83.4649C133.244 83.5304 132.916 83.561 132.54 83.561C131.919 83.561 131.43 83.3819 131.062 83.0281C130.695 82.6743 130.516 82.1022 130.516 81.316C129.86 82.1022 129.095 82.6743 128.226 83.0281C127.356 83.3819 126.412 83.561 125.402 83.561C124.746 83.561 124.121 83.4867 123.531 83.3382C122.941 83.1897 122.43 82.9495 122.001 82.6219C121.568 82.2944 121.228 81.8751 120.974 81.3597C120.721 80.8443 120.594 80.2241 120.594 79.4904C120.594 78.6649 120.734 77.9923 121.013 77.4682C121.293 76.9441 121.665 76.5248 122.124 76.206C122.583 75.8872 123.107 75.6382 123.697 75.4635C124.287 75.2844 124.891 75.1403 125.511 75.0268C126.167 74.8957 126.792 74.7997 127.382 74.7341C127.972 74.6686 128.488 74.5769 128.929 74.4546C129.371 74.3323 129.721 74.1576 129.983 73.9218C130.245 73.6859 130.376 73.3453 130.376 72.8954C130.376 72.3713 130.28 71.9476 130.096 71.6332C129.908 71.3144 129.659 71.0698 129.353 70.9038C129.043 70.7335 128.698 70.6243 128.313 70.5675C127.928 70.5107 127.548 70.4845 127.177 70.4845C126.162 70.4845 125.323 70.6767 124.646 71.061C123.973 71.4454 123.605 72.1704 123.549 73.2361H121.158C121.197 72.3364 121.381 71.5808 121.721 70.9606C122.058 70.3404 122.508 69.8425 123.072 69.4581C123.636 69.0738 124.283 68.7986 125.013 68.6283C125.743 68.458 126.512 68.375 127.316 68.375C127.972 68.375 128.623 68.423 129.27 68.5148C129.917 68.6065 130.503 68.7986 131.027 69.0913C131.552 69.3839 131.972 69.7901 132.291 70.3142C132.61 70.8383 132.767 71.524 132.767 72.3669V79.8398C132.767 80.4032 132.798 80.8138 132.868 81.0758C132.933 81.3379 133.152 81.4689 133.528 81.4689C133.751 81.4689 133.995 81.4209 134.258 81.3291V83.2247H134.253ZM130.372 75.7518C130.149 75.9003 129.865 76.0226 129.528 76.1187C129.192 76.2104 128.833 76.2934 128.462 76.3589C128.086 76.4244 127.688 76.4812 127.268 76.5292C126.849 76.5772 126.438 76.6384 126.044 76.7126C125.651 76.7869 125.275 76.883 124.921 76.9922C124.567 77.1057 124.257 77.2586 123.994 77.4551C123.732 77.6517 123.522 77.9006 123.361 78.1976C123.203 78.499 123.12 78.8702 123.12 79.3201C123.12 79.7131 123.199 80.0451 123.361 80.3159C123.518 80.5867 123.728 80.8094 123.977 80.9754C124.23 81.1457 124.523 81.268 124.864 81.3422C125.201 81.4165 125.559 81.4558 125.931 81.4558C126.718 81.4558 127.391 81.3466 127.955 81.1326C128.518 80.9186 128.977 80.6478 129.332 80.3159C129.686 79.9883 129.948 79.6345 130.118 79.2502C130.289 78.8658 130.372 78.5077 130.372 78.167V75.7518Z" fill="black"></path>
  </g>
  <defs>
    <clipPath id="clip0_1676_365">
      <rect width="237" height="84" fill="white"></rect>
    </clipPath>
  </defs>
</svg>
